<?xml version="1.0" standalone="no"?>
<!DOCTYPE svg PUBLIC "-//W3C//DTD SVG 20010904//EN"
 "http://www.w3.org/TR/2001/REC-SVG-20010904/DTD/svg10.dtd">
<svg version="1.0" xmlns="http://www.w3.org/2000/svg"
 width="640.000000pt" height="640.000000pt" viewBox="0 0 640.000000 640.000000"
 preserveAspectRatio="xMidYMid meet">

<g transform="translate(0.000000,640.000000) scale(0.100000,-0.100000)"
fill="#000000" stroke="none">
<path d="M3105 6390 c-22 -5 -66 -9 -98 -9 -102 -1 -385 -41 -516 -72 -283
-68 -444 -127 -706 -256 -121 -60 -192 -97 -215 -113 -8 -5 -62 -41 -120 -80
-209 -138 -311 -222 -490 -400 -174 -174 -235 -244 -334 -384 -16 -23 -39 -54
-52 -69 -13 -16 -24 -33 -24 -39 0 -6 -7 -20 -17 -30 -9 -10 -21 -27 -27 -37
-6 -11 -39 -66 -72 -123 -34 -57 -68 -119 -77 -138 -8 -19 -35 -78 -60 -130
-84 -176 -165 -420 -224 -675 -13 -57 -35 -219 -49 -370 -29 -299 -3 -672 68
-970 39 -168 138 -468 182 -555 7 -14 33 -67 57 -117 l43 -93 588 0 588 0 2
288 3 287 380 0 380 0 3 -388 2 -387 -910 0 c-500 0 -910 -3 -910 -7 0 -5 8
-20 18 -34 28 -44 96 -141 117 -169 11 -15 29 -40 40 -56 57 -83 264 -309 391
-424 158 -145 165 -151 419 -320 84 -56 309 -178 421 -228 129 -58 464 -172
505 -172 14 0 39 -7 146 -41 100 -31 353 -59 597 -64 446 -10 877 77 1316 266
84 36 333 164 382 196 24 15 52 34 63 41 67 42 81 52 94 64 14 13 79 60 131
96 14 9 36 26 50 38 14 12 50 43 80 69 152 131 450 443 450 471 0 7 7 14 14
17 8 3 22 21 32 38 9 18 29 46 45 63 16 17 32 40 35 51 4 11 14 29 24 40 40
46 220 373 220 400 0 4 12 30 26 59 54 107 148 382 169 496 8 41 21 107 29
145 58 282 68 370 68 640 0 209 -5 267 -42 515 -21 140 -103 460 -140 545 -5
11 -25 63 -45 115 -20 52 -57 139 -82 193 l-46 97 -574 0 -573 0 0 -290 0
-290 -385 0 -385 0 0 390 0 390 900 0 901 0 -16 28 c-14 24 -52 81 -72 107 -5
6 -21 30 -38 55 -16 25 -42 61 -58 80 -34 42 -51 63 -97 121 -38 47 -255 268
-334 339 -75 68 -171 142 -271 211 -49 34 -92 65 -95 69 -6 8 -183 107 -300
167 -241 123 -610 249 -865 294 -187 33 -596 63 -660 49z m755 -2645 l0 -1125
-270 0 -270 0 0 865 0 865 -98 0 c-357 0 -635 -103 -830 -309 -59 -62 -92
-111 -142 -211 -73 -146 -87 -202 -105 -440 l-6 -75 -292 3 c-160 1 -292 4
-294 6 -6 5 27 257 43 329 40 183 134 399 243 557 43 62 216 244 272 286 14
10 52 39 83 62 152 116 380 220 572 263 178 39 267 46 682 48 l412 2 0 -1126z
m-740 -832 l0 -866 153 7 c316 13 513 84 712 252 84 72 130 132 193 252 69
132 91 214 104 385 l12 147 293 0 293 0 0 -35 c0 -99 -47 -351 -89 -480 -48
-145 -156 -341 -248 -452 -45 -54 -176 -184 -228 -225 -74 -60 -232 -162 -293
-190 -37 -17 -85 -38 -107 -48 -58 -26 -150 -56 -230 -75 -194 -46 -217 -47
-667 -52 l-438 -5 0 1126 0 1126 270 0 270 0 0 -867z m1760 622 l0 -245 -385
0 -385 0 0 245 0 245 385 0 385 0 0 -245z m-2558 -437 c8 -21 10 -442 3 -460
-7 -17 -35 -18 -391 -18 l-384 0 0 245 0 245 384 0 c298 0 385 -3 388 -12z"/>
</g>
</svg>
